Coordinates
version=1
nRows=22
nColumns=24
inDegrees=yes

Units are S.I. units (second, meters, Newtons, ...)
Angles are in degrees.

endheader
time	pelvis_tilt	pelvis_list	pelvis_rotation	pelvis_tx	pelvis_ty	pelvis_tz	hip_flexion_r	hip_adduction_r	hip_rotation_r	knee_angle_r	ankle_angle_r	subtalar_angle_r	mtp_angle_r	hip_flexion_l	hip_adduction_l	hip_rotation_l	knee_angle_l	ankle_angle_l	subtalar_angle_l	mtp_angle_l	lumbar_extension	lumbar_bending	lumbar_rotation
      3.59000000	    -10.21810277	      4.50142131	     -1.67083695	     -2.17342998	     -0.02225497	     -0.69156800	     11.87296732	     -6.96858346	     -2.79385998	    -53.89343341	    -18.60676821	    -12.27497709	      5.66990960	     29.50595939	      5.06945067	    -14.43605900	    -23.90920893	      0.18284568	    -10.48348628	      3.37755739	      7.06974400	     -5.23902259	      1.59701361
      3.59500000	    -10.19220185	      4.56896811	     -1.60922883	     -2.16814200	     -0.02164090	     -0.69249642	     12.74508866	     -7.06068950	     -2.74346576	    -55.30549641	    -18.64551004	    -13.19866932	      5.41680400	     29.05162804	      5.26038816	    -14.43794781	    -23.76771555	      0.40050930	    -10.46303982	      3.47820749	      7.01368034	     -5.32318108	      1.37484596
      3.60000000	    -10.26098932	      4.56332031	     -1.56217726	     -2.16288247	     -0.02111236	     -0.69334829	     13.73269126	     -7.04221456	     -2.68831148	    -56.68709155	    -18.50876216	    -14.13431532	      4.69810408	     28.69751737	      5.36019181	    -14.38951227	    -23.63841430	      0.71917034	    -10.35211224	      3.64709435	      7.06455371	     -5.32594063	      1.21241214
      3.60500000	    -10.33054524	      4.57038421	     -1.44905291	     -2.15768183	     -0.02059788	     -0.69425537	     14.72574817	     -7.06410770	     -2.71962164	    -58.07520553	    -18.02511352	    -14.76705066	      3.18387793	     28.35259736	      5.49281381	    -14.36519924	    -23.51073337	      1.00872753	    -10.18772842	      3.83430794	      7.09902402	     -5.35410628	      0.92287478
      3.61000000	    -10.31003411	      4.57684127	     -1.40633960	     -2.15249804	     -0.01990243	     -0.69515887	     15.61450143	     -7.07614159	     -2.69444775	    -59.30306060	    -17.76100887	    -15.64838713	      2.71929254	     27.86260483	      5.63450449	    -14.28207468	    -23.28978345	      1.22051334	    -10.21244920	      3.86740122	      7.04376612	     -5.35793454	      0.75958640
      3.61500000	    -10.43423545	      4.53993498	     -1.28449361	     -2.14739008	     -0.01939858	     -0.69610145	     16.67284993	     -7.05313790	     -2.74527765	    -60.55124532	    -17.18556707	    -16.18553988	      1.37673350	     27.56502111	      5.73725690	    -14.18043523	    -23.13833621	      1.52564286	    -10.05507546	      3.89953539	      7.13025355	     -5.33047129	      0.46194748
      3.62000000	    -10.43840939	      4.51042690	     -1.23569285	     -2.14228231	     -0.01869066	     -0.69701932	     17.58700147	     -7.02894339	     -2.75510730	    -61.63597082	    -16.81172408	    -16.94891275	      0.88786840	     27.08940531	      5.85051834	    -14.06482265	    -22.88883049	      1.72696281	    -10.09696418	      3.87652980	      7.09497848	     -5.28891608	      0.30575235
      3.62500000	    -10.56308532	      4.45367478	     -1.12493880	     -2.13714261	     -0.01812978	     -0.69797747	     18.61494212	     -6.98682492	     -2.81895665	    -62.67987561	    -16.21067569	    -17.44127875	      0.00927383	     26.75326962	      5.94619517	    -13.92665848	    -22.66722240	      1.99905214	    -10.02516458	      3.80114415	      7.20230939	     -5.22643658	      0.05500320
      3.63000000	    -10.61557265	      4.40324350	     -1.03950283	     -2.13210405	     -0.01745974	     -0.69893293	     19.57113784	     -6.95002752	     -2.86209948	    -63.63044874	    -15.70473695	    -17.91750715	     -0.57957148	     26.32629541	      6.05071319	    -13.77461464	    -22.40897680	      2.22227304	    -10.00595602	      3.69159987	      7.21268375	     -5.16426073	     -0.16418927
      3.63500000	    -10.56464253	      4.35385866	     -0.94892195	     -2.12702311	     -0.01663593	     -0.69989911	     20.37186631	     -6.92279194	     -2.90079639	    -64.43780315	    -15.23724463	    -18.29687834	     -0.57060190	     25.75410730	      6.16264756	    -13.61340383	    -22.09741645	      2.43445121	     -9.91969370	      3.71390091	      7.12050149	     -5.10259145	     -0.39989089
      3.64000000	    -10.71803684	      4.29665744	     -0.82880387	     -2.12203334	     -0.01607888	     -0.70086041	     21.41567153	     -6.87881266	     -2.96124898	    -65.22637290	    -14.71699548	    -18.64901131	     -0.81412586	     25.43575030	      6.26442439	    -13.47737087	    -21.82186632	      2.61331964	     -9.93140749	      3.58276339	      7.23834943	     -5.03594829	     -0.66390792
      3.64500000	    -10.68195534	      4.21451393	     -0.76167908	     -2.11694305	     -0.01523527	     -0.70175547	     22.20342329	     -6.79087773	     -2.98653400	    -65.85109536	    -14.24215219	    -18.92069927	     -0.77471409	     24.85119580	      6.33365663	    -13.27728413	    -21.46537840	      2.82763143	     -9.85383219	      3.58418632	      7.17731400	     -4.93397235	     -0.83596156
      3.65000000	    -10.82362416	      4.17045968	     -0.65323132	     -2.11195742	     -0.01466198	     -0.70272077	     23.21324937	     -6.76183277	     -3.04145688	    -66.48229440	    -13.64627782	    -19.04435005	     -1.02564179	     24.49285006	      6.45768534	    -13.09239286	    -21.15210589	      3.06794148	     -9.85421896	      3.07807622	      7.29816113	     -4.87140751	     -1.06966493
      3.65500000	    -10.79430754	      4.09509119	     -0.56060531	     -2.10687788	     -0.01381791	     -0.70357126	     23.96906768	     -6.67696002	     -3.08981843	    -66.93395465	    -13.13344760	    -19.20884505	     -0.89353977	     23.89799448	      6.53122887	    -12.92115027	    -20.75656146	      3.25712728	     -9.73345794	      3.09235758	      7.24512450	     -4.78577033	     -1.27019799
      3.66000000	    -10.82389256	      4.03774276	     -0.44290282	     -2.10181652	     -0.01308486	     -0.70453353	     24.77789453	     -6.63512041	     -3.12668616	    -67.32754212	    -12.49836341	    -19.08196985	     -0.52850082	     23.37233725	      6.63935076	    -12.76431498	    -20.35890325	      3.42541762	     -9.69208479	      2.97822021	      7.25854062	     -4.70939909	     -1.52457771
      3.66500000	    -10.80701826	      3.99589269	     -0.32679581	     -2.09675886	     -0.01228684	     -0.70541382	     25.51176380	     -6.60234259	     -3.18452251	    -67.61879932	    -11.90030099	    -19.06295955	     -0.13897566	     22.78195432	      6.75316886	    -12.62521974	    -19.93543045	      3.57310168	     -9.59775344	      2.89208503	      7.22116342	     -4.65923712	     -1.76286625
      3.67000000	    -10.75547693	      3.93741549	     -0.26311048	     -2.09168653	     -0.01142881	     -0.70631223	     26.18608171	     -6.52969924	     -3.16989005	    -67.78709716	    -11.37540214	    -18.97482510	      0.80908236	     22.12433457	      6.85350727	    -12.41867789	    -19.46365417	      3.72515925	     -9.61068007	      2.62518226	      7.15492071	     -4.56641734	     -1.90481478
      3.67500000	    -10.71815641	      3.88618691	     -0.12429220	     -2.08657547	     -0.01059514	     -0.70717962	     26.84014991	     -6.49815495	     -3.27053888	    -67.89064626	    -10.77550021	    -18.89589933	      1.21988545	     21.49051033	      6.95040513	    -12.32105843	    -19.00678202	      3.88088628	     -9.41673846	      2.60982560	      7.10827532	     -4.51284187	     -2.19336543
      3.68000000	    -10.59243002	      3.85361754	     -0.04960430	     -2.08146227	     -0.00964647	     -0.70805836	     27.37497399	     -6.46476707	     -3.28448347	    -67.85389437	    -10.32175256	    -18.86427161	      2.48502477	     20.71967942	      7.07289546	    -12.16452385	    -18.47102804	      3.98185914	     -9.38466176	      2.44544095	      6.97102092	     -4.44944087	     -2.35259224
      3.68500000	    -10.56219783	      3.77088421	      0.08172165	     -2.07639043	     -0.00884642	     -0.70890056	     27.99419970	     -6.38948306	     -3.38012664	    -67.79035811	     -9.67609507	    -18.66472696	      2.80754262	     20.08758372	      7.12751259	    -12.04500502	    -18.00115442	      4.15094966	     -9.18226904	      2.48452646	      6.92808667	     -4.35365039	     -2.60138391
      3.69000000	    -10.45528684	      3.70820148	      0.18022906	     -2.07127309	     -0.00794678	     -0.70971314	     28.50013701	     -6.32820723	     -3.45006044	    -67.62166475	     -9.04530565	    -18.44621569	      3.26561097	     19.34478470	      7.19644749	    -11.94983680	    -17.47945113	      4.25205677	     -9.03105724	      2.50354705	      6.81527452	     -4.27191608	     -2.82045256
      3.69500000	    -10.29733408	      3.64021083	      0.26783721	     -2.06616782	     -0.00697769	     -0.71054758	     28.91473043	     -6.26074507	     -3.50963790	    -67.30299611	     -8.67511912	    -18.48371067	      4.56777051	     18.52569306	      7.26431427	    -11.81115973	    -16.91404388	      4.31677747	     -8.93398538	      2.56952481	      6.64140131	     -4.17437737	     -3.02022645
